<?xml version="1.0" encoding="UTF-8"?><svg xmlns="http://www.w3.org/2000/svg" xmlns:xlink="http://www.w3.org/1999/xlink" height="329.0" preserveAspectRatio="xMidYMid meet" version="1.0" viewBox="82.2 87.9 386.3 329.0" width="386.3" zoomAndPan="magnify"><g><g><g id="change1_1"><path d="M343.2 298.4L275.6 109.7 210.8 299.4 102.1 243.5 145.5 413.4 277.9 412.4 410.3 411.3 451 236.6z" fill="#ffc34e" stroke="#5c3a72" stroke-linecap="round" stroke-linejoin="round" stroke-miterlimit="10" stroke-width="6.97"/></g><g id="change2_1"><path d="M330.1 340.2L276.2 192.5 229.2 339.4 141.4 291.2 176.7 396.6 277.8 395.8 378.9 395 407 287.6z" fill="#ffffb8"/></g><g id="change3_1"><path d="M432.4,384.4l-303.1,2.3c-1.6,0-2.9-1.3-3-2.9l-0.2-24.1c0-1.6,1.3-2.9,2.9-3l303.1-2.3 c1.6,0,2.9,1.3,3,2.9l0.2,24.1C435.3,383,434,384.4,432.4,384.4z" fill="#fe88f7" stroke="#5c3a72" stroke-miterlimit="10" stroke-width="7.595"/></g><g id="change3_2"><path d="M276,272.1c0,0,17.4-28,30.1-15.5s-26.6,65.1-26.6,65.1s-50.1-57.9-27.3-66C265.5,251,276,272.1,276,272.1z" fill="#fe88f7" stroke="#5c3a72" stroke-linecap="round" stroke-linejoin="round" stroke-miterlimit="10" stroke-width="6.97"/></g><g id="change4_1"><path d="M275.6,283.3c0,0,7.8-11,13.6-6.1c5.7,4.9-12,25.6-12,25.6s-22.5-22.8-12.3-25.9 C270.9,275,275.6,283.3,275.6,283.3z" fill="#fec7f7"/></g><g id="change3_3"><ellipse cx="105.6" cy="244.2" fill="#fe88f7" rx="19.7" ry="20.5" stroke="#5c3a72" stroke-linecap="round" stroke-linejoin="round" stroke-miterlimit="10" stroke-width="6.97" transform="matrix(1 -.0077 .0077 1 -1.876 .82)"/></g><g id="change3_4"><ellipse cx="445.2" cy="240" fill="#fe88f7" rx="19.7" ry="20.5" stroke="#5c3a72" stroke-linecap="round" stroke-linejoin="round" stroke-miterlimit="10" stroke-width="6.97" transform="matrix(1 -.0077 .0077 1 -1.834 3.433)"/></g><g id="change3_5"><ellipse cx="275.2" cy="111.3" fill="#fe88f7" rx="20.1" ry="19.7" stroke="#5c3a72" stroke-linecap="round" stroke-linejoin="round" stroke-miterlimit="10" stroke-width="6.97" transform="matrix(1 -.0077 .0077 1 -.848 2.121)"/></g><g id="change4_2"><ellipse cx="165.6" cy="369.9" fill="#fec7f7" rx="7.9" ry="7.1" transform="matrix(1 -.0077 .0077 1 -2.841 1.286)"/></g><g id="change4_3"><ellipse cx="278.3" cy="369.4" fill="#fec7f7" rx="7.9" ry="7.5" transform="matrix(1 -.0077 .0077 1 -2.835 2.153)"/></g><g id="change4_4"><ellipse cx="224" cy="370.6" fill="#fec7f7" rx="7.9" ry="7.5" transform="matrix(1 -.0077 .0077 1 -2.845 1.735)"/></g><g id="change4_5"><ellipse cx="340.6" cy="368.9" fill="#fec7f7" rx="7.9" ry="7.5" transform="matrix(1 -.0077 .0077 1 -2.829 2.632)"/></g><g id="change4_6"><ellipse cx="387.5" cy="368.2" fill="#fec7f7" rx="7.5" ry="9.5" transform="matrix(1 -.0077 .0077 1 -2.822 2.993)"/></g><g id="change4_7"><ellipse cx="107.5" cy="244.2" fill="#fec7f7" rx="7.5" ry="7.1" transform="matrix(1 -.0077 .0077 1 -1.876 .835)"/></g><g id="change4_8"><ellipse cx="276.7" cy="109.7" fill="#fec7f7" rx="5.9" ry="6.3" transform="matrix(1 -.0077 .0077 1 -.836 2.133)"/></g><g id="change4_9"><ellipse cx="449.6" cy="239.2" fill="#fec7f7" rx="5.9" ry="6.3" transform="matrix(1 -.0077 .0077 1 -1.828 3.467)"/></g></g></g></svg>